<?xml version="1.0" standalone="no"?>
<!DOCTYPE svg PUBLIC "-//W3C//DTD SVG 20010904//EN"
 "http://www.w3.org/TR/2001/REC-SVG-20010904/DTD/svg10.dtd">
<svg version="1.0" xmlns="http://www.w3.org/2000/svg"
 width="363.000000pt" height="323.000000pt" viewBox="0 0 363.000000 323.000000"
 preserveAspectRatio="xMidYMid meet">

<g transform="translate(0.000000,323.000000) scale(0.100000,-0.100000)"
fill="#000000" stroke="none">
<path d="M2280 3158 c58 -30 134 -74 170 -98 86 -58 238 -206 309 -301 117
-154 233 -435 232 -556 -1 -12 4 -25 9 -28 5 -3 7 -26 3 -52 -4 -34 -3 -44 5
-39 15 9 15 0 -4 -152 -18 -152 -45 -262 -85 -351 l-29 -66 31 35 c16 19 37
49 44 65 25 52 16 10 -16 -82 -112 -315 -337 -582 -627 -740 -46 -25 -85 -43
-88 -41 -2 3 14 13 37 23 32 15 71 57 181 192 l140 174 -68 -46 c-143 -98
-315 -169 -489 -201 -122 -22 -367 -15 -475 14 -41 11 -111 30 -154 42 -341
92 -637 377 -749 720 -71 218 -66 510 12 708 35 88 130 273 179 347 57 86 227
259 305 310 31 21 55 40 53 43 -3 2 -42 -17 -88 -43 -233 -134 -409 -318 -527
-554 -208 -412 -168 -926 101 -1306 175 -246 431 -424 723 -502 76 -20 82 -22
37 -18 -148 16 -401 123 -552 236 -221 163 -396 405 -484 669 -32 96 -32 81
-2 -45 84 -345 269 -628 545 -835 471 -353 1150 -370 1641 -41 104 69 175 132
269 235 180 197 294 424 348 692 24 124 24 404 0 528 -98 488 -427 886 -882
1065 -151 59 -172 59 -55 -1z m737 -1305 c-3 -10 -5 -2 -5 17 0 19 2 27 5 18
2 -10 2 -26 0 -35z m-10 -85 c-3 -7 -5 -2 -5 12 0 14 2 19 5 13 2 -7 2 -19 0
-25z m-817 -1038 c-8 -5 -19 -10 -25 -10 -5 0 -3 5 5 10 8 5 20 10 25 10 6 0
3 -5 -5 -10z m-263 -76 c-3 -3 -12 -4 -19 -1 -8 3 -5 6 6 6 11 1 17 -2 13 -5z
m-390 -10 c-3 -3 -12 -4 -19 -1 -8 3 -5 6 6 6 11 1 17 -2 13 -5z m330 0 c-3
-3 -12 -4 -19 -1 -8 3 -5 6 6 6 11 1 17 -2 13 -5z m-134 -11 c-24 -2 -62 -2
-85 0 -24 2 -5 4 42 4 47 0 66 -2 43 -4z"/>
<path d="M1873 2305 c0 -8 4 -15 9 -15 4 0 8 4 8 9 0 6 -4 12 -8 15 -5 3 -9
-1 -9 -9z"/>
<path d="M1695 2220 l-30 -8 32 -1 c17 0 35 4 38 9 7 11 3 11 -40 0z"/>
<path d="M3505 2071 c-54 -5 -71 -10 -73 -23 -3 -14 5 -15 60 -11 l63 6 -58
-63 c-31 -35 -57 -68 -57 -73 0 -6 21 -7 53 -3 28 3 69 6 90 6 26 0 37 4 37
15 0 12 -14 15 -62 15 l-61 0 57 60 c52 55 64 83 33 78 -7 -1 -43 -4 -82 -7z"/>
<path d="M20 2049 c0 -15 7 -19 35 -19 47 0 45 -19 -5 -48 -22 -12 -40 -29
-40 -37 0 -20 4 -19 51 11 l41 26 39 -38 c33 -32 39 -35 39 -18 0 11 -13 33
-30 49 -16 16 -30 32 -30 36 0 4 16 9 35 11 55 5 46 22 -15 30 -30 4 -70 9
-87 12 -28 4 -33 2 -33 -15z"/>
<path d="M1610 1903 l0 -118 62 0 63 0 5 -35 c8 -45 25 -77 50 -90 17 -9 20
-21 20 -81 0 -80 0 -80 85 -36 22 12 44 20 48 19 5 -1 6 2 3 7 -4 5 2 16 12
23 30 22 62 103 62 158 l0 50 -65 0 c-51 0 -65 3 -65 15 0 10 10 15 29 15 25
0 28 3 23 25 -4 24 8 32 41 26 5 -1 7 11 5 26 -2 17 -8 27 -16 25 -8 -1 -11 2
-7 7 9 15 -34 34 -61 27 -23 -6 -34 -26 -14 -26 6 0 10 5 10 10 0 6 7 10 16
10 14 0 14 -1 0 -16 -17 -17 -21 -34 -8 -34 4 0 14 6 21 13 10 10 11 9 6 -5
-4 -11 -16 -17 -30 -16 -13 1 -21 6 -19 10 3 5 -1 15 -10 23 -17 17 -31 4 -22
-20 3 -8 0 -15 -7 -15 -8 0 -7 -4 3 -9 8 -6 17 -8 21 -5 4 2 10 0 14 -6 4 -6
11 -8 16 -5 5 4 9 -1 9 -9 0 -8 -4 -18 -10 -21 -5 -3 -10 -1 -10 4 0 6 -16 11
-35 11 l-35 0 0 80 0 80 -105 0 -105 0 0 -117z m33 7 c3 -11 1 -18 -4 -14 -5
3 -9 12 -9 20 0 20 7 17 13 -6z m124 -2 c-3 -8 -6 -5 -6 6 -1 11 2 17 5 13 3
-3 4 -12 1 -19z m-77 -52 c-1 -33 -11 -24 -24 21 -6 18 -4 22 8 17 10 -4 16
-18 16 -38z m240 4 c0 -11 -4 -20 -9 -20 -5 0 -7 9 -4 20 3 11 7 20 9 20 2 0
4 -9 4 -20z m-219 -33 c-10 -9 -11 -8 -5 6 3 10 9 15 12 12 3 -3 0 -11 -7 -18z
m143 -37 c19 -1 20 -2 4 -14 -12 -8 -15 -20 -11 -37 6 -21 5 -22 -10 -11 -12
10 -21 11 -37 2 -19 -10 -21 -9 -18 8 2 10 -3 26 -11 35 -12 15 -11 17 7 17
13 0 23 9 28 23 l7 22 10 -22 c6 -13 19 -23 31 -23z m133 -79 c1 -12 -2 -19
-7 -16 -6 3 -7 -1 -4 -9 10 -26 -43 -101 -81 -116 -30 -11 -55 6 -55 39 0 33
61 118 93 131 28 10 52 -3 54 -29z"/>
<path d="M1913 1705 c1 -5 -5 -8 -13 -7 -8 2 -12 0 -8 -3 9 -9 -10 -47 -20
-41 -4 2 -8 -11 -9 -30 -3 -28 1 -34 16 -34 24 0 68 55 81 99 8 30 8 31 -20
29 -16 -1 -28 -7 -27 -13z"/>
<path d="M6 1854 c-3 -9 -6 -36 -6 -60 0 -32 4 -44 15 -44 11 0 15 12 15 45 0
41 2 45 25 45 23 0 25 -4 25 -40 0 -40 13 -53 24 -24 3 9 6 27 6 40 0 17 6 24
20 24 17 0 20 -7 20 -45 0 -33 4 -45 15 -45 12 0 15 13 15 60 l0 60 -84 0
c-67 0 -85 -3 -90 -16z"/>
<path d="M3526 1827 c-44 -18 -81 -37 -83 -44 -4 -11 102 -71 155 -87 28 -9
30 14 3 31 -16 10 -19 20 -14 50 3 21 12 43 19 49 15 12 19 34 7 34 -5 -1 -44
-15 -87 -33z m34 -52 c0 -29 0 -29 -35 -13 -27 12 -32 24 -12 31 31 13 47 7
47 -18z"/>
<path d="M68 1703 c-42 -3 -58 -8 -58 -18 0 -11 14 -15 58 -15 l57 0 -50 -30
c-27 -16 -50 -35 -50 -42 0 -7 27 -22 60 -32 l60 -20 -55 -11 c-41 -8 -56 -15
-58 -29 -3 -13 0 -17 9 -14 8 3 47 11 87 18 64 12 73 16 70 33 -2 14 -17 24
-53 34 -27 8 -54 18 -58 23 -5 4 17 22 48 40 38 22 55 37 53 49 -3 18 -26 20
-120 14z"/>
<path d="M3437 1647 c-6 -15 29 -27 79 -27 38 0 29 -16 -36 -61 -33 -23 -59
-47 -57 -53 4 -12 140 -31 162 -22 26 10 16 26 -17 27 -18 1 -46 4 -62 8 -28
6 -28 7 37 51 94 64 93 66 -54 86 -36 4 -47 2 -52 -9z"/>
<path d="M128 1451 c-37 -9 -70 -19 -73 -23 -12 -11 16 -108 30 -108 10 0 11
9 4 38 -12 51 -12 49 16 54 23 5 26 1 31 -33 4 -23 12 -39 20 -39 10 0 12 11
7 45 -5 41 -4 45 15 45 16 0 24 -9 32 -40 11 -39 30 -55 30 -24 0 33 -23 104
-34 103 -6 -1 -41 -9 -78 -18z"/>
<path d="M3480 1416 c-111 -14 -113 -26 -22 -100 38 -31 72 -56 76 -56 11 0 6
27 -8 39 -21 18 1 88 31 96 20 5 35 37 16 34 -5 -1 -46 -7 -93 -13z m20 -50
c0 -35 -14 -39 -39 -12 -21 23 -22 24 -4 29 36 9 43 7 43 -17z"/>
<path d="M2060 1376 c0 -2 8 -10 18 -17 15 -13 16 -12 3 4 -13 16 -21 21 -21
13z"/>
<path d="M1556 1342 c-3 -5 1 -9 9 -9 8 0 12 4 9 9 -3 4 -7 8 -9 8 -2 0 -6 -4
-9 -8z"/>
<path d="M2035 1340 c3 -5 8 -10 11 -10 2 0 4 5 4 10 0 6 -5 10 -11 10 -5 0
-7 -4 -4 -10z"/>
<path d="M175 1289 c-38 -15 -73 -29 -77 -31 -4 -2 -4 -9 1 -16 6 -10 18 -9
59 7 29 12 52 18 52 16 0 -3 -13 -32 -30 -65 -16 -33 -30 -68 -30 -78 0 -18 5
-17 80 11 44 17 80 36 80 44 0 17 -11 16 -60 -3 -23 -9 -43 -14 -46 -11 -3 3
8 32 25 66 30 59 39 92 24 90 -5 -1 -39 -14 -78 -30z"/>
<path d="M1700 1305 c0 -5 5 -17 10 -25 5 -8 10 -10 10 -5 0 6 -5 17 -10 25
-5 8 -10 11 -10 5z"/>
<path d="M1741 1284 c0 -11 3 -14 6 -6 3 7 2 16 -1 19 -3 4 -6 -2 -5 -13z"/>
<path d="M1791 1284 c0 -11 3 -14 6 -6 3 7 2 16 -1 19 -3 4 -6 -2 -5 -13z"/>
<path d="M3354 1276 c-4 -11 2 -33 15 -56 30 -53 27 -62 -13 -45 -24 10 -37
12 -42 4 -3 -6 -2 -14 2 -19 12 -11 134 -60 151 -60 27 0 12 26 -23 39 -42 15
-36 26 27 44 25 7 45 20 47 29 3 15 -1 15 -48 1 -28 -8 -53 -13 -54 -11 -2 1
-15 23 -29 48 -21 36 -27 41 -33 26z"/>
<path d="M310 1126 c0 -3 4 -15 9 -29 9 -22 5 -26 -55 -55 -35 -18 -64 -36
-64 -40 0 -21 16 -19 77 11 65 32 72 32 86 -7 2 -5 8 -6 15 -2 8 5 3 24 -18
67 -17 32 -35 59 -40 59 -6 0 -10 -2 -10 -4z"/>
<path d="M3277 1097 c-3 -9 20 -26 69 -50 81 -40 94 -44 94 -24 0 7 -34 29
-75 50 -86 42 -81 41 -88 24z"/>
<path d="M3223 988 c-22 -24 -47 -68 -41 -72 2 -2 35 -21 73 -44 52 -30 73
-37 83 -29 10 8 6 14 -18 30 -24 15 -28 22 -19 33 6 8 26 14 43 14 31 0 56 15
56 32 0 5 -17 6 -37 2 -35 -5 -39 -4 -50 25 -9 25 -17 31 -40 31 -18 0 -38 -9
-50 -22z m62 -19 c10 -15 -4 -59 -18 -59 -7 0 -22 6 -32 14 -19 14 -19 15 -1
35 21 23 41 27 51 10z"/>
<path d="M332 934 l-72 -46 16 -27 c30 -50 53 -76 61 -68 4 5 -2 25 -14 46
-21 36 -21 38 -3 49 15 9 22 6 43 -21 30 -39 48 -28 23 14 -14 24 -15 33 -6
44 18 21 22 19 48 -21 31 -48 49 -33 20 17 -12 22 -27 44 -33 49 -7 6 -38 -8
-83 -36z"/>
<path d="M3120 840 c-37 -47 -37 -47 47 -111 l55 -43 38 44 c26 30 35 48 29
55 -7 7 -20 -1 -40 -25 -27 -32 -30 -33 -46 -17 -16 16 -16 18 5 46 12 17 22
33 22 36 0 14 -23 2 -45 -22 -22 -26 -25 -27 -40 -12 -14 14 -14 18 5 41 11
15 20 31 20 37 0 21 -19 10 -50 -29z"/>
<path d="M432 796 c-76 -62 -78 -64 -58 -72 10 -4 25 1 37 12 31 28 46 6 30
-46 -11 -39 -9 -60 8 -60 5 0 12 15 17 33 8 25 16 33 39 35 38 5 55 19 55 46
0 26 -46 96 -63 95 -7 0 -36 -19 -65 -43z m88 -17 c7 -11 9 -27 6 -35 -8 -20
-46 -14 -60 9 -9 15 -7 21 8 33 26 19 33 18 46 -7z"/>
<path d="M3011 706 c-18 -19 -32 -38 -30 -43 10 -22 119 -114 129 -108 8 5 4
15 -11 31 l-22 24 21 23 c27 28 28 68 4 90 -28 26 -55 20 -91 -17z m63 -2 c21
-8 20 -33 -1 -56 -15 -17 -17 -17 -35 -2 -23 21 -23 40 0 53 21 13 17 12 36 5z"/>
<path d="M549 644 c-53 -52 -65 -74 -38 -74 16 0 129 112 123 121 -10 17 -26
8 -85 -47z"/>
<path d="M621 566 c-53 -27 -80 -46 -72 -50 7 -4 22 -5 34 -3 30 8 81 -36 74
-63 -3 -11 1 -24 8 -30 11 -9 19 5 41 74 24 79 27 117 7 115 -4 0 -46 -19 -92
-43z m64 -33 c-9 -38 -12 -39 -35 -18 l-21 19 23 13 c34 19 41 16 33 -14z"/>
<path d="M2885 580 c-4 -6 8 -28 26 -51 17 -22 30 -41 28 -43 -2 -2 -39 2 -82
7 -42 6 -80 8 -83 4 -7 -6 94 -137 106 -137 22 0 17 21 -15 61 -19 24 -33 44
-32 45 1 1 37 -3 79 -9 43 -6 80 -8 84 -4 7 7 -86 136 -98 137 -4 0 -10 -5
-13 -10z"/>
<path d="M765 449 c-33 -48 -45 -73 -38 -80 8 -8 22 4 47 37 20 26 37 45 37
43 1 -2 6 -38 13 -79 7 -46 16 -75 23 -75 15 0 104 125 97 136 -10 17 -24 8
-56 -38 l-33 -48 -7 65 c-10 84 -16 110 -26 110 -5 0 -30 -32 -57 -71z"/>
<path d="M2664 417 c-8 -21 20 -182 31 -180 6 1 11 13 13 25 4 31 68 74 87 58
9 -7 20 -8 30 -3 12 7 -1 20 -60 61 -79 55 -93 60 -101 39z m75 -61 c10 -12 8
-17 -9 -26 -26 -14 -25 -14 -33 28 -6 29 -5 31 12 23 9 -6 23 -17 30 -25z"/>
<path d="M1000 300 c-28 -56 -36 -81 -28 -86 7 -4 16 0 22 10 28 47 35 52 46
36 5 -8 10 -25 10 -38 0 -29 17 -62 31 -62 6 0 9 10 6 23 -20 86 -21 81 29
105 35 17 44 26 35 35 -8 8 -22 6 -56 -11 -50 -24 -63 -16 -41 27 14 26 14 30
1 35 -11 4 -26 -17 -55 -74z"/>
<path d="M2488 333 c-21 -8 -38 -19 -38 -24 0 -4 16 -42 35 -84 l34 -76 33 17
c85 42 103 101 49 155 -33 32 -58 35 -113 12z m101 -44 c19 -34 8 -73 -25 -88
-31 -14 -34 -11 -61 57 -14 37 -14 45 -2 53 26 17 72 6 88 -22z"/>
<path d="M1172 224 c-18 -42 -30 -80 -27 -84 2 -4 25 -15 51 -25 33 -12 49
-14 56 -7 11 11 5 14 -59 37 -15 5 -16 15 -3 35 8 12 14 13 42 2 48 -18 62 3
14 23 -26 11 -36 21 -34 33 4 18 24 20 71 7 39 -11 35 12 -6 29 -76 31 -72 33
-105 -50z"/>
<path d="M2323 257 c11 -30 28 -99 25 -102 -2 -2 -32 14 -66 36 -88 56 -95 52
-67 -44 25 -85 31 -95 45 -81 6 6 4 27 -5 58 -8 27 -14 51 -12 52 2 2 32 -14
67 -36 55 -33 91 -48 90 -37 0 1 -11 38 -23 82 -17 59 -27 81 -41 83 -14 3
-17 0 -13 -11z"/>
<path d="M1355 240 c-6 -10 -45 -144 -45 -154 0 -4 95 -36 107 -36 2 0 3 7 3
15 0 8 -14 17 -35 21 -40 7 -41 12 -20 80 8 27 15 57 15 67 0 19 -15 23 -25 7z"/>
<path d="M1501 131 c-28 -42 -51 -80 -51 -84 0 -13 29 -7 38 8 11 20 92 10 92
-11 0 -7 9 -18 20 -24 24 -13 24 -7 9 60 -34 151 -41 154 -108 51z m63 -3 c9
-35 8 -38 -19 -38 -29 0 -29 0 -13 35 14 31 24 32 32 3z"/>
<path d="M2063 198 c-9 -11 -43 -146 -43 -169 0 -5 7 -9 15 -9 8 0 15 7 15 15
0 31 84 47 104 20 6 -8 16 -11 23 -7 9 5 -3 30 -39 85 -28 42 -54 77 -58 77
-4 0 -12 -6 -17 -12z m51 -100 c-3 -4 -16 -8 -29 -8 -19 0 -22 4 -18 23 11 50
13 52 33 22 10 -16 17 -32 14 -37z"/>
<path d="M1666 159 c-3 -17 -6 -47 -6 -66 0 -75 95 -113 139 -57 26 33 30 138
6 148 -12 4 -15 -4 -15 -44 0 -84 -27 -123 -71 -100 -16 9 -19 22 -19 80 0 53
-3 70 -14 70 -7 0 -16 -14 -20 -31z"/>
<path d="M1857 183 c-15 -14 -6 -23 23 -23 29 0 30 -2 30 -44 0 -65 11 -106
27 -106 12 0 13 14 7 80 l-7 80 27 0 c14 0 26 5 26 10 0 11 -123 14 -133 3z"/>
</g>
</svg>
